<?xml version="1.0" encoding="UTF-8" standalone="no"?>
<!DOCTYPE svg PUBLIC "-//W3C//DTD SVG 1.1//EN" "http://www.w3.org/Graphics/SVG/1.1/DTD/svg11.dtd">
<svg version="1.1" xmlns="http://www.w3.org/2000/svg" xmlns:xlink="http://www.w3.org/1999/xlink" preserveAspectRatio="xMidYMid meet" viewBox="228.37852724509128 313.71527997105744 124.94715175491109 101.68864295674217" width="120.95" height="97.69"><defs><path d="M277.8 406.31C277.44 406.96 272.76 419 266.22 407.33C262.36 397.01 263.11 386.97 265.99 380.44C265.99 380.44 271.49 365.33 289.85 368.92C289.85 368.84 289.85 368.43 289.85 367.69L289.85 372.21C286.8 384.2 282.79 395.57 277.8 406.31Z" id="ahOLUAiD3"></path><linearGradient id="gradientfGNQWxgSh" gradientUnits="userSpaceOnUse" x1="289.85" y1="390.05" x2="263.57" y2="390.05"><stop style="stop-color: #b5e4fa;stop-opacity: 1" offset="0%"></stop><stop style="stop-color: #9eddf9;stop-opacity: 1" offset="49.16%"></stop><stop style="stop-color: #9eddf9;stop-opacity: 0.3721" offset="97.86%"></stop><stop style="stop-color: #9eddf9;stop-opacity: 0.3446" offset="100%"></stop></linearGradient><path d="M269.09 403.82C268.59 404.38 262.16 414.41 258.67 401.48C257.45 395.72 256.55 385.57 261.55 377.15C261.55 377.15 269.66 362.59 289.85 365.69C289.85 365.77 289.85 366.15 289.85 366.84L289.85 371.96C282.85 383.71 275.93 394.33 269.09 403.82Z" id="a3aWgnEBuU"></path><linearGradient id="gradienti2p4sguISE" gradientUnits="userSpaceOnUse" x1="283.08" y1="361.78" x2="257.97" y2="405.27"><stop style="stop-color: #007dac;stop-opacity: 0.3" offset="12.33%"></stop><stop style="stop-color: #0084b3;stop-opacity: 0.3152" offset="15.64%"></stop><stop style="stop-color: #009cca;stop-opacity: 0.3695" offset="27.43%"></stop><stop style="stop-color: #00afdd;stop-opacity: 0.42" offset="38.41%"></stop><stop style="stop-color: #2fbeec;stop-opacity: 0.4651" offset="48.199999999999996%"></stop><stop style="stop-color: #38c6f4;stop-opacity: 0.5" offset="55.78999999999999%"></stop><stop style="stop-color: #3fc7f4;stop-opacity: 0.5422" offset="65.11%"></stop><stop style="stop-color: #52c9f5;stop-opacity: 0.5751" offset="72.38%"></stop><stop style="stop-color: #6bcef5;stop-opacity: 0.6048" offset="78.96%"></stop><stop style="stop-color: #89d5f6;stop-opacity: 0.6327" offset="85.13%"></stop><stop style="stop-color: #abdff8;stop-opacity: 0.6594" offset="91.01%"></stop><stop style="stop-color: #d1ecf9;stop-opacity: 0.6846" offset="96.61%"></stop><stop style="stop-color: #ebf5fa;stop-opacity: 0.7" offset="100%"></stop></linearGradient><path d="M263.15 401.38C262.58 401.86 254.67 410.77 253.22 397.45C252.66 386.49 254.59 379.94 260.77 372.4C260.77 372.4 270.84 359.75 289.85 362.69C289.85 363.05 289.85 364.87 289.85 368.14L289.85 371.96C279.95 383.32 271.05 393.12 263.15 401.38Z" id="e68ug32ZS2"></path><linearGradient id="gradientdpyRFdwck" gradientUnits="userSpaceOnUse" x1="282.81" y1="358.62" x2="256.31" y2="404.51"><stop style="stop-color: #007dac;stop-opacity: 0" offset="0%"></stop><stop style="stop-color: #007dac;stop-opacity: 0.7" offset="53.900000000000006%"></stop><stop style="stop-color: #007dac;stop-opacity: 0.1639" offset="94.85%"></stop><stop style="stop-color: #007dac;stop-opacity: 0.1" offset="99.72999999999999%"></stop></linearGradient><path d="M258.68 392.56C251.17 397.64 249.61 392.44 249.61 392.44C248.46 385.52 254.86 374.78 254.86 374.78C261.65 363.66 273.79 360.98 273.79 360.98C283.15 358.2 289.85 359.6 289.85 359.6C289.85 359.86 289.85 361.17 289.85 363.52L289.85 370.7C273.72 382.12 263.33 389.41 258.68 392.56Z" id="b9ZyKoOeK"></path><linearGradient id="gradienta1OEm2PBSe" gradientUnits="userSpaceOnUse" x1="282.42" y1="355.31" x2="257.72" y2="398.1"><stop style="stop-color: #006b96;stop-opacity: 0" offset="34.96%"></stop><stop style="stop-color: #006f99;stop-opacity: 0.0758" offset="37.14%"></stop><stop style="stop-color: #0076a2;stop-opacity: 0.3035" offset="43.7%"></stop><stop style="stop-color: #007aa8;stop-opacity: 0.5334" offset="50.32%"></stop><stop style="stop-color: #007cab;stop-opacity: 0.7648" offset="56.98%"></stop><stop style="stop-color: #007dac;stop-opacity: 1" offset="63.74999999999999%"></stop><stop style="stop-color: #007ead;stop-opacity: 1" offset="67.92%"></stop><stop style="stop-color: #0082b0;stop-opacity: 1" offset="72.54%"></stop><stop style="stop-color: #008ab5;stop-opacity: 1" offset="77.38000000000001%"></stop><stop style="stop-color: #2795bc;stop-opacity: 1" offset="82.38%"></stop><stop style="stop-color: #5ea5c7;stop-opacity: 1" offset="87.49%"></stop><stop style="stop-color: #90bcd5;stop-opacity: 1" offset="92.71000000000001%"></stop><stop style="stop-color: #c9dce8;stop-opacity: 1" offset="97.89999999999999%"></stop><stop style="stop-color: #e4eef3;stop-opacity: 1" offset="100%"></stop></linearGradient><path d="M289.85 371.96C289.85 371.96 276.06 386.21 253.95 375.76C253.95 375.76 243.13 370.93 235.01 359.64C226.66 348.12 227.91 343.68 236.71 345.43C245.51 347.18 271.76 352.66 289.85 360.15C289.85 362.52 289.85 370.78 289.85 371.96Z" id="c5BRRwZNy"></path><linearGradient id="gradientaCwWzHfET" gradientUnits="userSpaceOnUse" x1="289.85" y1="362.33" x2="229.38" y2="362.33"><stop style="stop-color: #38c6f4;stop-opacity: 1" offset="0%"></stop><stop style="stop-color: #42c7f4;stop-opacity: 0.9846" offset="15.43%"></stop><stop style="stop-color: #5bcbf5;stop-opacity: 0.9672" offset="32.79%"></stop><stop style="stop-color: #7ad2f7;stop-opacity: 0.9489" offset="51.09%"></stop><stop style="stop-color: #a0ddf9;stop-opacity: 0.93" offset="70.03%"></stop><stop style="stop-color: #ccecfc;stop-opacity: 0.9107" offset="89.29%"></stop><stop style="stop-color: #e7f6fd;stop-opacity: 0.9" offset="100%"></stop></linearGradient><path d="M289.85 370.32C289.85 370.32 272.31 384.8 251.33 369.76C251.33 369.76 241.32 363.04 234.91 350.68C228.32 338.08 230.15 335.85 238.61 338.85C247.06 341.86 273.8 351.59 289.85 361.64C289.85 363.38 289.85 369.45 289.85 370.32Z" id="a2aHA39Ph0"></path><linearGradient id="gradientb1lzVTQ5vU" gradientUnits="userSpaceOnUse" x1="282.31" y1="377.87" x2="237.12" y2="332.69"><stop style="stop-color: #007dac;stop-opacity: 1" offset="0%"></stop><stop style="stop-color: #0081af;stop-opacity: 0.9716" offset="9.48%"></stop><stop style="stop-color: #008eb8;stop-opacity: 0.9175" offset="27.49%"></stop><stop style="stop-color: #61a7c9;stop-opacity: 0.8436" offset="52.129999999999995%"></stop><stop style="stop-color: #b6d2e3;stop-opacity: 0.7536" offset="82.14%"></stop><stop style="stop-color: #f0f7fb;stop-opacity: 0.7" offset="100%"></stop></linearGradient><path d="M289.85 368.29C289.85 368.29 267.84 373.11 254.69 349.63C254.69 349.63 249.14 339.45 248.2 326.31C247.26 313.16 249.11 312.23 255.18 318.36C261.53 325.13 278.96 343.83 289.85 359.6C289.85 361.33 289.85 367.42 289.85 368.29Z" id="a6d86m052r"></path><linearGradient id="gradientbmpt0q2YF" gradientUnits="userSpaceOnUse" x1="282.58" y1="372.48" x2="249.33" y2="314.89"><stop style="stop-color: #38c6f4;stop-opacity: 1" offset="0.44%"></stop><stop style="stop-color: #40c7f4;stop-opacity: 0.9871" offset="18.45%"></stop><stop style="stop-color: #55caf5;stop-opacity: 0.9751" offset="35.05%"></stop><stop style="stop-color: #71d0f6;stop-opacity: 0.9636" offset="51.09%"></stop><stop style="stop-color: #91d9f8;stop-opacity: 0.9524" offset="66.67999999999999%"></stop><stop style="stop-color: #b6e4fa;stop-opacity: 0.9417" offset="81.63%"></stop><stop style="stop-color: #d2eefc;stop-opacity: 0.9417" offset="89.57000000000001%"></stop><stop style="stop-color: #ffffff;stop-opacity: 0.9417" offset="100%"></stop></linearGradient><path d="M251.31 363.17C251.31 363.17 242.25 354.9 237.42 342.02C232.58 329.43 234.78 327.62 242.71 331.8C250.62 335.96 274.63 348.21 289.85 360.49C289.85 361.12 289.85 364.26 289.85 369.93C276.12 376.74 263.27 374.48 251.31 363.17Z" id="a1cafL0NS1"></path><linearGradient id="gradientaVwkzTrZi" gradientUnits="userSpaceOnUse" x1="277.96" y1="376.8" x2="247.2" y2="323.51"><stop style="stop-color: #007dac;stop-opacity: 0.7" offset="0.27%"></stop><stop style="stop-color: #0081af;stop-opacity: 0.7094" offset="9.64%"></stop><stop style="stop-color: #008db7;stop-opacity: 0.7273" offset="27.450000000000003%"></stop><stop style="stop-color: #5fa4c5;stop-opacity: 0.7517" offset="51.82%"></stop><stop style="stop-color: #b1ccdd;stop-opacity: 0.7814" offset="81.49%"></stop><stop style="stop-color: #eaeff2;stop-opacity: 0.8" offset="100%"></stop></linearGradient><path d="M289.85 368.92C289.85 368.92 270.77 377.74 253.22 357.17C253.22 357.17 245.48 348.28 241.98 335.51C238.48 322.75 240.88 321.33 248.06 326.18C255.24 331.03 276.55 346.17 289.85 359.61C289.85 361.47 289.85 367.99 289.85 368.92Z" id="b6tJHv5bS"></path><linearGradient id="gradientac8EnCeWJ" gradientUnits="userSpaceOnUse" x1="280.35" y1="374.4" x2="248.74" y2="319.65"><stop style="stop-color: #38c6f4;stop-opacity: 1" offset="0%"></stop><stop style="stop-color: #54c9f3;stop-opacity: 0.9719" offset="14.05%"></stop><stop style="stop-color: #85d1f2;stop-opacity: 0.9186" offset="40.699999999999996%"></stop><stop style="stop-color: #c3e2f2;stop-opacity: 0.8463" offset="76.86%"></stop><stop style="stop-color: #eaeff2;stop-opacity: 0.8" offset="100%"></stop></linearGradient><path d="M301.91 406.31C302.27 406.96 306.94 419 313.48 407.33C317.34 397.01 316.59 386.97 313.71 380.44C313.71 380.44 308.22 365.33 289.85 368.92C289.85 368.84 289.85 368.43 289.85 367.69L289.85 372.21C292.9 384.2 296.92 395.57 301.91 406.31Z" id="bbskMSf4v"></path><linearGradient id="gradientb667ggcD6" gradientUnits="userSpaceOnUse" x1="289.85" y1="390.05" x2="316.13" y2="390.05"><stop style="stop-color: #b5e4fa;stop-opacity: 1" offset="0%"></stop><stop style="stop-color: #9eddf9;stop-opacity: 1" offset="49.16%"></stop><stop style="stop-color: #9eddf9;stop-opacity: 0.3721" offset="97.86%"></stop><stop style="stop-color: #9eddf9;stop-opacity: 0.3446" offset="100%"></stop></linearGradient><path d="M310.62 403.82C311.11 404.38 317.55 414.41 321.04 401.48C322.25 395.72 323.15 385.57 318.15 377.15C318.15 377.15 310.04 362.59 289.85 365.69C289.85 365.77 289.85 366.15 289.85 366.84L289.85 371.96C296.86 383.71 303.78 394.33 310.62 403.82Z" id="aMdNeEtre"></path><linearGradient id="gradienteZBusrEn" gradientUnits="userSpaceOnUse" x1="296.63" y1="361.78" x2="321.74" y2="405.27"><stop style="stop-color: #007dac;stop-opacity: 0.3" offset="12.33%"></stop><stop style="stop-color: #0084b3;stop-opacity: 0.3152" offset="15.64%"></stop><stop style="stop-color: #009cca;stop-opacity: 0.3695" offset="27.43%"></stop><stop style="stop-color: #00afdd;stop-opacity: 0.42" offset="38.41%"></stop><stop style="stop-color: #2fbeec;stop-opacity: 0.4651" offset="48.199999999999996%"></stop><stop style="stop-color: #38c6f4;stop-opacity: 0.5" offset="55.78999999999999%"></stop><stop style="stop-color: #3fc7f4;stop-opacity: 0.5422" offset="65.11%"></stop><stop style="stop-color: #52c9f5;stop-opacity: 0.5751" offset="72.38%"></stop><stop style="stop-color: #6bcef5;stop-opacity: 0.6048" offset="78.96%"></stop><stop style="stop-color: #89d5f6;stop-opacity: 0.6327" offset="85.13%"></stop><stop style="stop-color: #abdff8;stop-opacity: 0.6594" offset="91.01%"></stop><stop style="stop-color: #d1ecf9;stop-opacity: 0.6846" offset="96.61%"></stop><stop style="stop-color: #ebf5fa;stop-opacity: 0.7" offset="100%"></stop></linearGradient><path d="M316.55 401.38C317.13 401.86 325.03 410.77 326.49 397.45C327.05 386.49 325.11 379.94 318.93 372.4C318.93 372.4 308.87 359.75 289.85 362.69C289.85 363.05 289.85 364.87 289.85 368.14L289.85 371.96C299.75 383.32 308.65 393.12 316.55 401.38Z" id="a3s6hAkqRs"></path><linearGradient id="gradientb1OMRZ2vIx" gradientUnits="userSpaceOnUse" x1="296.89" y1="358.62" x2="323.39" y2="404.51"><stop style="stop-color: #007dac;stop-opacity: 0" offset="0%"></stop><stop style="stop-color: #007dac;stop-opacity: 0.7" offset="53.900000000000006%"></stop><stop style="stop-color: #0082af;stop-opacity: 0.7102" offset="58.620000000000005%"></stop><stop style="stop-color: #0091ba;stop-opacity: 0.7302" offset="67.83%"></stop><stop style="stop-color: #6eadcd;stop-opacity: 0.758" offset="80.64%"></stop><stop style="stop-color: #cde0ec;stop-opacity: 0.7922" offset="96.41999999999999%"></stop><stop style="stop-color: #e6f1f7;stop-opacity: 0.8" offset="100%"></stop></linearGradient><path d="M321.03 392.56C328.53 397.64 330.09 392.44 330.09 392.44C331.24 385.52 324.84 374.78 324.84 374.78C318.05 363.66 305.92 360.98 305.92 360.98C296.55 358.2 289.85 359.6 289.85 359.6C289.85 359.86 289.85 361.17 289.85 363.52L289.85 370.7C305.98 382.12 316.37 389.41 321.03 392.56Z" id="cKGo5ovK2"></path><linearGradient id="gradientfNEXNhLVo" gradientUnits="userSpaceOnUse" x1="297.28" y1="355.31" x2="321.99" y2="398.1"><stop style="stop-color: #006b96;stop-opacity: 0" offset="34.96%"></stop><stop style="stop-color: #006f99;stop-opacity: 0.0758" offset="37.14%"></stop><stop style="stop-color: #0076a2;stop-opacity: 0.3035" offset="43.7%"></stop><stop style="stop-color: #007aa8;stop-opacity: 0.5334" offset="50.32%"></stop><stop style="stop-color: #007cab;stop-opacity: 0.7648" offset="56.98%"></stop><stop style="stop-color: #007dac;stop-opacity: 1" offset="63.74999999999999%"></stop><stop style="stop-color: #007ead;stop-opacity: 1" offset="67.92%"></stop><stop style="stop-color: #0082b0;stop-opacity: 1" offset="72.54%"></stop><stop style="stop-color: #008ab5;stop-opacity: 1" offset="77.38000000000001%"></stop><stop style="stop-color: #2795bc;stop-opacity: 1" offset="82.38%"></stop><stop style="stop-color: #5ea5c7;stop-opacity: 1" offset="87.49%"></stop><stop style="stop-color: #90bcd5;stop-opacity: 1" offset="92.71000000000001%"></stop><stop style="stop-color: #c9dce8;stop-opacity: 1" offset="97.89999999999999%"></stop><stop style="stop-color: #e4eef3;stop-opacity: 1" offset="100%"></stop></linearGradient><path d="M289.85 371.96C289.85 371.96 303.65 386.21 325.76 375.76C325.76 375.76 336.57 370.93 344.69 359.64C353.05 348.12 351.79 343.68 343 345.43C334.2 347.18 307.94 352.66 289.85 360.15C289.85 362.52 289.85 370.78 289.85 371.96Z" id="c539OINpvd"></path><linearGradient id="gradientblw37DaZF" gradientUnits="userSpaceOnUse" x1="289.85" y1="362.33" x2="350.33" y2="362.33"><stop style="stop-color: #38c6f4;stop-opacity: 1" offset="0%"></stop><stop style="stop-color: #42c7f4;stop-opacity: 0.9846" offset="15.43%"></stop><stop style="stop-color: #5bcbf5;stop-opacity: 0.9672" offset="32.79%"></stop><stop style="stop-color: #7ad2f7;stop-opacity: 0.9489" offset="51.09%"></stop><stop style="stop-color: #a0ddf9;stop-opacity: 0.93" offset="70.03%"></stop><stop style="stop-color: #ccecfc;stop-opacity: 0.9107" offset="89.29%"></stop><stop style="stop-color: #e7f6fd;stop-opacity: 0.9" offset="100%"></stop></linearGradient><path d="M289.85 370.32C289.85 370.32 307.39 384.8 328.38 369.76C328.38 369.76 338.39 363.04 344.79 350.68C351.38 338.08 349.55 335.85 341.09 338.85C332.64 341.86 305.9 351.59 289.85 361.64C289.85 363.38 289.85 369.45 289.85 370.32Z" id="a2v470GGF"></path><linearGradient id="gradientbb9EWOY60" gradientUnits="userSpaceOnUse" x1="297.4" y1="377.87" x2="342.58" y2="332.69"><stop style="stop-color: #007dac;stop-opacity: 1" offset="0%"></stop><stop style="stop-color: #0081af;stop-opacity: 0.9716" offset="9.48%"></stop><stop style="stop-color: #008eb8;stop-opacity: 0.9175" offset="27.49%"></stop><stop style="stop-color: #61a7c9;stop-opacity: 0.8436" offset="52.129999999999995%"></stop><stop style="stop-color: #b6d2e3;stop-opacity: 0.7536" offset="82.14%"></stop><stop style="stop-color: #f0f7fb;stop-opacity: 0.7" offset="100%"></stop></linearGradient><path d="M289.85 368.29C289.85 368.29 311.86 373.11 325.01 349.63C325.01 349.63 330.56 339.45 331.51 326.31C332.45 313.16 330.59 312.23 324.52 318.36C318.17 325.13 300.74 343.83 289.85 359.6C289.85 361.33 289.85 367.42 289.85 368.29Z" id="f1Isr8shZC"></path><linearGradient id="gradientc1KHDKFyBo" gradientUnits="userSpaceOnUse" x1="297.12" y1="372.48" x2="330.37" y2="314.89"><stop style="stop-color: #38c6f4;stop-opacity: 1" offset="0.44%"></stop><stop style="stop-color: #40c7f4;stop-opacity: 0.9871" offset="18.45%"></stop><stop style="stop-color: #55caf5;stop-opacity: 0.9751" offset="35.05%"></stop><stop style="stop-color: #71d0f6;stop-opacity: 0.9636" offset="51.09%"></stop><stop style="stop-color: #91d9f8;stop-opacity: 0.9524" offset="66.67999999999999%"></stop><stop style="stop-color: #b6e4fa;stop-opacity: 0.9417" offset="81.63%"></stop><stop style="stop-color: #d2eefc;stop-opacity: 0.9417" offset="89.57000000000001%"></stop><stop style="stop-color: #ffffff;stop-opacity: 0.9417" offset="100%"></stop></linearGradient><path d="M328.4 363.17C328.4 363.17 337.45 354.9 342.28 342.02C347.12 329.43 344.93 327.62 337 331.8C329.09 335.96 305.07 348.21 289.85 360.49C289.85 361.12 289.85 364.26 289.85 369.93C303.59 376.74 316.43 374.48 328.4 363.17Z" id="b5oucFa1M"></path><linearGradient id="gradientahHvKHs3k" gradientUnits="userSpaceOnUse" x1="301.74" y1="376.8" x2="332.51" y2="323.51"><stop style="stop-color: #007dac;stop-opacity: 0.7" offset="0.27%"></stop><stop style="stop-color: #0081af;stop-opacity: 0.7094" offset="9.64%"></stop><stop style="stop-color: #008db7;stop-opacity: 0.7273" offset="27.450000000000003%"></stop><stop style="stop-color: #5fa4c5;stop-opacity: 0.7517" offset="51.82%"></stop><stop style="stop-color: #b1ccdd;stop-opacity: 0.7814" offset="81.49%"></stop><stop style="stop-color: #eaeff2;stop-opacity: 0.8" offset="100%"></stop></linearGradient><path d="M289.85 368.92C289.85 368.92 308.93 377.74 326.49 357.17C326.49 357.17 334.22 348.28 337.72 335.51C341.22 322.75 338.82 321.33 331.65 326.18C324.46 331.03 303.15 346.17 289.85 359.61C289.85 361.47 289.85 367.99 289.85 368.92Z" id="bTmEPAFKi"></path><linearGradient id="gradientatKDF1v9C" gradientUnits="userSpaceOnUse" x1="299.35" y1="374.4" x2="330.97" y2="319.65"><stop style="stop-color: #38c6f4;stop-opacity: 1" offset="0%"></stop><stop style="stop-color: #54c9f3;stop-opacity: 0.9719" offset="14.05%"></stop><stop style="stop-color: #85d1f2;stop-opacity: 0.9186" offset="40.699999999999996%"></stop><stop style="stop-color: #c3e2f2;stop-opacity: 0.8463" offset="76.86%"></stop><stop style="stop-color: #eaeff2;stop-opacity: 0.8" offset="100%"></stop></linearGradient></defs><g><g><use xlink:href="#ahOLUAiD3" opacity="1" fill="url(#gradientfGNQWxgSh)"></use><g><use xlink:href="#ahOLUAiD3" opacity="1" fill-opacity="0" stroke="#000000" stroke-width="1" stroke-opacity="0"></use></g></g><g><use xlink:href="#a3aWgnEBuU" opacity="1" fill="url(#gradienti2p4sguISE)"></use><g><use xlink:href="#a3aWgnEBuU" opacity="1" fill-opacity="0" stroke="#000000" stroke-width="1" stroke-opacity="0"></use></g></g><g><use xlink:href="#e68ug32ZS2" opacity="1" fill="url(#gradientdpyRFdwck)"></use><g><use xlink:href="#e68ug32ZS2" opacity="1" fill-opacity="0" stroke="#000000" stroke-width="1" stroke-opacity="0"></use></g></g><g><use xlink:href="#b9ZyKoOeK" opacity="1" fill="url(#gradienta1OEm2PBSe)"></use><g><use xlink:href="#b9ZyKoOeK" opacity="1" fill-opacity="0" stroke="#000000" stroke-width="1" stroke-opacity="0"></use></g></g><g><use xlink:href="#c5BRRwZNy" opacity="1" fill="url(#gradientaCwWzHfET)"></use><g><use xlink:href="#c5BRRwZNy" opacity="1" fill-opacity="0" stroke="#000000" stroke-width="1" stroke-opacity="0"></use></g></g><g><use xlink:href="#a2aHA39Ph0" opacity="1" fill="url(#gradientb1lzVTQ5vU)"></use><g><use xlink:href="#a2aHA39Ph0" opacity="1" fill-opacity="0" stroke="#000000" stroke-width="1" stroke-opacity="0"></use></g></g><g><use xlink:href="#a6d86m052r" opacity="1" fill="url(#gradientbmpt0q2YF)"></use><g><use xlink:href="#a6d86m052r" opacity="1" fill-opacity="0" stroke="#000000" stroke-width="1" stroke-opacity="0"></use></g></g><g><use xlink:href="#a1cafL0NS1" opacity="1" fill="url(#gradientaVwkzTrZi)"></use><g><use xlink:href="#a1cafL0NS1" opacity="1" fill-opacity="0" stroke="#000000" stroke-width="1" stroke-opacity="0"></use></g></g><g><use xlink:href="#b6tJHv5bS" opacity="1" fill="url(#gradientac8EnCeWJ)"></use><g><use xlink:href="#b6tJHv5bS" opacity="1" fill-opacity="0" stroke="#000000" stroke-width="1" stroke-opacity="0"></use></g></g><g><use xlink:href="#bbskMSf4v" opacity="1" fill="url(#gradientb667ggcD6)"></use><g><use xlink:href="#bbskMSf4v" opacity="1" fill-opacity="0" stroke="#000000" stroke-width="1" stroke-opacity="0"></use></g></g><g><use xlink:href="#aMdNeEtre" opacity="1" fill="url(#gradienteZBusrEn)"></use><g><use xlink:href="#aMdNeEtre" opacity="1" fill-opacity="0" stroke="#000000" stroke-width="1" stroke-opacity="0"></use></g></g><g><use xlink:href="#a3s6hAkqRs" opacity="1" fill="url(#gradientb1OMRZ2vIx)"></use><g><use xlink:href="#a3s6hAkqRs" opacity="1" fill-opacity="0" stroke="#000000" stroke-width="1" stroke-opacity="0"></use></g></g><g><use xlink:href="#cKGo5ovK2" opacity="1" fill="url(#gradientfNEXNhLVo)"></use><g><use xlink:href="#cKGo5ovK2" opacity="1" fill-opacity="0" stroke="#000000" stroke-width="1" stroke-opacity="0"></use></g></g><g><use xlink:href="#c539OINpvd" opacity="1" fill="url(#gradientblw37DaZF)"></use><g><use xlink:href="#c539OINpvd" opacity="1" fill-opacity="0" stroke="#000000" stroke-width="1" stroke-opacity="0"></use></g></g><g><use xlink:href="#a2v470GGF" opacity="1" fill="url(#gradientbb9EWOY60)"></use><g><use xlink:href="#a2v470GGF" opacity="1" fill-opacity="0" stroke="#000000" stroke-width="1" stroke-opacity="0"></use></g></g><g><use xlink:href="#f1Isr8shZC" opacity="1" fill="url(#gradientc1KHDKFyBo)"></use><g><use xlink:href="#f1Isr8shZC" opacity="1" fill-opacity="0" stroke="#000000" stroke-width="1" stroke-opacity="0"></use></g></g><g><use xlink:href="#b5oucFa1M" opacity="1" fill="url(#gradientahHvKHs3k)"></use><g><use xlink:href="#b5oucFa1M" opacity="1" fill-opacity="0" stroke="#000000" stroke-width="1" stroke-opacity="0"></use></g></g><g><use xlink:href="#bTmEPAFKi" opacity="1" fill="url(#gradientatKDF1v9C)"></use><g><use xlink:href="#bTmEPAFKi" opacity="1" fill-opacity="0" stroke="#000000" stroke-width="1" stroke-opacity="0"></use></g></g></g></svg>