<?xml version="1.0" encoding="utf-8"?>
<!-- Generator: Adobe Illustrator 16.0.0, SVG Export Plug-In . SVG Version: 6.00 Build 0)  -->
<!DOCTYPE svg PUBLIC "-//W3C//DTD SVG 1.1//EN" "http://www.w3.org/Graphics/SVG/1.1/DTD/svg11.dtd">
<svg version="1.1" id="Layer_1" xmlns="http://www.w3.org/2000/svg" xmlns:xlink="http://www.w3.org/1999/xlink" x="0px" y="0px"
	 width="595.28px" height="841.89px" viewBox="0 0 595.28 841.89" enable-background="new 0 0 595.28 841.89" xml:space="preserve">
<g>
	<g>
		<radialGradient id="XMLID_2_" cx="288.5557" cy="447.4043" r="150.4765" gradientUnits="userSpaceOnUse">
			<stop  offset="0" style="stop-color:#00B3F0"/>
			<stop  offset="1" style="stop-color:#002E6E"/>
		</radialGradient>
		<rect id="XMLID_144_" x="85.444" y="383.906" fill="url(#XMLID_2_)" width="406.223" height="126.997"/>
		<g id="XMLID_131_">
			<path id="XMLID_143_" fill="#FFFFFF" d="M290.074,422.362c-13.471,0-20.204,12.445-20.204,26.289
				c0,13.477,7.296,25.546,20.113,25.546c12.912,0,20.21-11.884,20.21-26.201C310.193,435.463,303.644,422.362,290.074,422.362z"/>
			<path id="XMLID_142_" fill="#FFFFFF" d="M347.067,422.734c-4.212,0-7.389,0.375-9.543,0.845v49.773
				c2.058,0.372,5.05,0.465,8.233,0.465c17.403,0,26.852-9.726,26.852-26.755C372.704,432.184,364.285,422.734,347.067,422.734z"/>
			<path id="XMLID_141_" fill="#FFFFFF" d="M220.273,422.734c-4.209,0-7.391,0.375-9.543,0.845v49.773
				c2.06,0.372,5.049,0.465,8.231,0.465c17.405,0,26.854-9.726,26.854-26.755C245.91,432.184,237.49,422.734,220.273,422.734z"/>
			<path id="XMLID_132_" fill="#FFFFFF" d="M54.876,381.517v136.602H529.56V381.517H54.876z M123.33,480.746
				c-6.085,0-12.727-1.779-16.098-4.026l2.061-6.831c3.651,2.247,8.984,4.123,14.596,4.123c8.328,0,13.195-4.402,13.195-10.764
				c0-5.898-3.371-9.266-11.884-12.539c-10.294-3.646-16.655-8.981-16.655-17.87c0-9.822,8.143-17.118,20.396-17.118
				c6.455,0,11.136,1.492,13.943,3.084l-2.246,6.645c-2.06-1.124-6.271-2.995-11.975-2.995c-8.611,0-11.884,5.146-11.884,9.45
				c0,5.894,3.834,8.796,12.538,12.163c10.664,4.118,16.092,9.264,16.092,18.524C145.41,472.326,138.207,480.746,123.33,480.746z
				 M192.01,479.808h-35.461v-63.064h34.059v6.835h-25.918v19.927h24.515v6.738h-24.515v22.736h27.32V479.808z M245.258,471.295
				c-5.897,5.894-15.629,9.074-27.887,9.074c-5.802,0-10.666-0.278-14.781-0.747v-62.029c4.959-0.756,10.853-1.318,17.309-1.318
				c11.697,0,20.025,2.716,25.543,7.866c5.613,5.142,8.891,12.445,8.891,22.64C254.332,457.075,251.148,465.495,245.258,471.295z
				 M289.515,480.839c-16.651,0-28.349-12.911-28.349-32.001c0-20.021,12.445-33.117,29.286-33.117
				c17.214,0,28.349,13.189,28.349,31.9C318.801,469.331,305.605,480.839,289.515,480.839z M372.05,471.295
				c-5.896,5.894-15.625,9.074-27.882,9.074c-5.803,0-10.668-0.278-14.783-0.747v-62.029c4.961-0.756,10.852-1.318,17.309-1.318
				c11.693,0,20.022,2.716,25.544,7.866c5.61,5.142,8.889,12.445,8.889,22.64C381.126,457.075,377.943,465.495,372.05,471.295z
				 M427.163,479.808h-35.461v-63.064h34.059v6.835h-25.918v19.927h24.514v6.738h-24.514v22.736h27.32V479.808z M472.267,479.808
				l-8.042-13.937c-3.277-5.336-5.333-8.796-7.302-12.445h-0.186c-1.778,3.649-3.558,7.017-6.831,12.534l-7.577,13.848h-9.359
				l19.276-31.899l-18.524-31.165h9.448l8.329,14.786c2.336,4.119,4.112,7.296,5.8,10.667h0.279
				c1.778-3.743,3.369-6.642,5.709-10.667l8.607-14.786h9.355l-19.18,30.691l19.648,32.373H472.267z"/>
		</g>
		<g id="XMLID_120_">
			<g id="XMLID_121_" opacity="0.95">
				
					<linearGradient id="XMLID_3_" gradientUnits="userSpaceOnUse" x1="538.6611" y1="390.4614" x2="564.9658" y2="390.4614" gradientTransform="matrix(-1 0 0 1 828.6445 0)">
					<stop  offset="0" style="stop-color:#B5E4FA"/>
					<stop  offset="0.4916" style="stop-color:#9EDDF9"/>
					<stop  offset="0.9786" style="stop-color:#9EDDF9;stop-opacity:0.3721"/>
					<stop  offset="1" style="stop-color:#9EDDF9;stop-opacity:0.3446"/>
				</linearGradient>
				<path id="XMLID_130_" opacity="0.7" fill="url(#XMLID_3_)" d="M289.983,372.604c0,0-4.575,18.007-12.065,34.135
					c-0.361,0.655-5.043,12.708-11.587,1.027c-3.866-10.34-3.118-20.384-0.236-26.928c0,0,5.507-15.118,23.889-11.528v-1.229
					V372.604z"/>
				
					<linearGradient id="XMLID_4_" gradientUnits="userSpaceOnUse" x1="545.4424" y1="362.1606" x2="570.5786" y2="405.6979" gradientTransform="matrix(-1 0 0 1 828.6445 0)">
					<stop  offset="0.1233" style="stop-color:#007DAC;stop-opacity:0.3"/>
					<stop  offset="0.1564" style="stop-color:#0084B3;stop-opacity:0.3152"/>
					<stop  offset="0.2743" style="stop-color:#009CCA;stop-opacity:0.3695"/>
					<stop  offset="0.3841" style="stop-color:#00AFDD;stop-opacity:0.42"/>
					<stop  offset="0.482" style="stop-color:#2FBEEC;stop-opacity:0.4651"/>
					<stop  offset="0.5579" style="stop-color:#38C6F4;stop-opacity:0.5"/>
					<stop  offset="0.6511" style="stop-color:#3FC7F4;stop-opacity:0.5422"/>
					<stop  offset="0.7238" style="stop-color:#52C9F5;stop-opacity:0.5751"/>
					<stop  offset="0.7896" style="stop-color:#6BCEF5;stop-opacity:0.6048"/>
					<stop  offset="0.8513" style="stop-color:#89D5F6;stop-opacity:0.6327"/>
					<stop  offset="0.9101" style="stop-color:#ABDFF8;stop-opacity:0.6594"/>
					<stop  offset="0.9661" style="stop-color:#D1ECF9;stop-opacity:0.6846"/>
					<stop  offset="1" style="stop-color:#EBF5FA;stop-opacity:0.7"/>
				</linearGradient>
				<path id="XMLID_129_" opacity="0.63" fill="url(#XMLID_4_)" d="M289.983,372.358c0,0-10.516,17.64-20.786,31.888
					c-0.494,0.566-6.937,10.603-10.431-2.34c-1.215-5.764-2.116-15.93,2.89-24.361c0,0,8.117-14.576,28.327-11.467v1.152V372.358z"
					/>
				
					<linearGradient id="XMLID_5_" gradientUnits="userSpaceOnUse" x1="545.7119" y1="359.0024" x2="572.2334" y2="404.939" gradientTransform="matrix(-1 0 0 1 828.6445 0)">
					<stop  offset="0" style="stop-color:#007DAC;stop-opacity:0"/>
					<stop  offset="0.539" style="stop-color:#007DAC;stop-opacity:0.7"/>
					<stop  offset="0.9485" style="stop-color:#007DAC;stop-opacity:0.1639"/>
					<stop  offset="0.9973" style="stop-color:#007DAC;stop-opacity:0.1"/>
				</linearGradient>
				<path id="XMLID_128_" opacity="0.59" fill="url(#XMLID_5_)" d="M289.983,372.358c0,0-14.862,17.049-26.732,29.442
					c-0.569,0.481-8.482,9.402-9.941-3.929c-0.562-10.975,1.374-17.526,7.563-25.077c0,0,10.077-12.664,29.111-9.721v5.457V372.358z
					"/>
				
					<linearGradient id="XMLID_6_" gradientUnits="userSpaceOnUse" x1="546.0986" y1="355.6826" x2="570.8306" y2="398.5196" gradientTransform="matrix(-1 0 0 1 828.6445 0)">
					<stop  offset="0.3496" style="stop-color:#006B96;stop-opacity:0"/>
					<stop  offset="0.3714" style="stop-color:#006F99;stop-opacity:0.0758"/>
					<stop  offset="0.437" style="stop-color:#0076A2;stop-opacity:0.3035"/>
					<stop  offset="0.5032" style="stop-color:#007AA8;stop-opacity:0.5334"/>
					<stop  offset="0.5698" style="stop-color:#007CAB;stop-opacity:0.7648"/>
					<stop  offset="0.6375" style="stop-color:#007DAC"/>
					<stop  offset="0.6792" style="stop-color:#007EAD"/>
					<stop  offset="0.7254" style="stop-color:#0082B0"/>
					<stop  offset="0.7738" style="stop-color:#008AB5"/>
					<stop  offset="0.8238" style="stop-color:#2795BC"/>
					<stop  offset="0.8749" style="stop-color:#5EA5C7"/>
					<stop  offset="0.9271" style="stop-color:#90BCD5"/>
					<stop  offset="0.979" style="stop-color:#C9DCE8"/>
					<stop  offset="1" style="stop-color:#E4EEF3"/>
				</linearGradient>
				<path id="XMLID_127_" opacity="0.42" fill="url(#XMLID_6_)" d="M289.983,371.097c-2.923,2.086-24.222,17.146-31.207,21.875
					c-7.515,5.089-9.072-0.117-9.072-0.117c-1.156-6.932,5.253-17.68,5.253-17.68c6.795-11.128,18.943-13.816,18.943-13.816
					c9.375-2.781,16.083-1.382,16.083-1.382v3.929V371.097z"/>
				
					<linearGradient id="XMLID_7_" gradientUnits="userSpaceOnUse" x1="538.6611" y1="362.7085" x2="599.1982" y2="362.7085" gradientTransform="matrix(-1 0 0 1 828.6445 0)">
					<stop  offset="0" style="stop-color:#38C6F4"/>
					<stop  offset="0.1543" style="stop-color:#42C7F4;stop-opacity:0.9846"/>
					<stop  offset="0.3279" style="stop-color:#5BCBF5;stop-opacity:0.9672"/>
					<stop  offset="0.5109" style="stop-color:#7AD2F7;stop-opacity:0.9489"/>
					<stop  offset="0.7003" style="stop-color:#A0DDF9;stop-opacity:0.93"/>
					<stop  offset="0.8929" style="stop-color:#CCECFC;stop-opacity:0.9107"/>
					<stop  offset="1" style="stop-color:#E7F6FD;stop-opacity:0.9"/>
				</linearGradient>
				<path id="XMLID_126_" opacity="0.7" fill="url(#XMLID_7_)" d="M289.983,360.535v11.823c0,0-13.808,14.265-35.942,3.795
					c0,0-10.824-4.83-18.961-16.136c-8.359-11.524-7.104-15.975,1.701-14.224C245.59,347.552,271.877,353.037,289.983,360.535z"/>
				
					<linearGradient id="XMLID_8_" gradientUnits="userSpaceOnUse" x1="546.2148" y1="378.2676" x2="591.4451" y2="333.0373" gradientTransform="matrix(-1 0 0 1 828.6445 0)">
					<stop  offset="0" style="stop-color:#007DAC"/>
					<stop  offset="0.0948" style="stop-color:#0081AF;stop-opacity:0.9716"/>
					<stop  offset="0.2749" style="stop-color:#008EB8;stop-opacity:0.9175"/>
					<stop  offset="0.5213" style="stop-color:#61A7C9;stop-opacity:0.8436"/>
					<stop  offset="0.8214" style="stop-color:#B6D2E3;stop-opacity:0.7536"/>
					<stop  offset="1" style="stop-color:#F0F7FB;stop-opacity:0.7"/>
				</linearGradient>
				<path id="XMLID_125_" opacity="0.9" fill="url(#XMLID_8_)" d="M289.983,362.022v8.691c0,0-17.557,14.495-38.563-0.566
					c0,0-10.024-6.726-16.432-19.091c-6.6-12.615-4.766-14.854,3.699-11.852C247.147,342.224,273.914,351.965,289.983,362.022z"/>
				
					<linearGradient id="XMLID_9_" gradientUnits="userSpaceOnUse" x1="545.9365" y1="372.876" x2="579.2213" y2="315.225" gradientTransform="matrix(-1 0 0 1 828.6445 0)">
					<stop  offset="0.0044" style="stop-color:#38C6F4"/>
					<stop  offset="0.1845" style="stop-color:#40C7F4;stop-opacity:0.9871"/>
					<stop  offset="0.3505" style="stop-color:#55CAF5;stop-opacity:0.9751"/>
					<stop  offset="0.5109" style="stop-color:#71D0F6;stop-opacity:0.9636"/>
					<stop  offset="0.6668" style="stop-color:#91D9F8;stop-opacity:0.9524"/>
					<stop  offset="0.8163" style="stop-color:#B6E4FA;stop-opacity:0.9417"/>
					<stop  offset="0.8957" style="stop-color:#D2EEFC;stop-opacity:0.9417"/>
					<stop  offset="1" style="stop-color:#FFFFFF;stop-opacity:0.9417"/>
				</linearGradient>
				<path id="XMLID_124_" opacity="0.4" fill="url(#XMLID_9_)" d="M289.983,359.977v8.698c0,0-22.031,4.834-35.198-18.674
					c0,0-5.555-10.19-6.5-23.347c-0.939-13.161,0.914-14.091,6.988-7.955C261.631,325.474,279.082,344.193,289.983,359.977z"/>
				
					<linearGradient id="XMLID_10_" gradientUnits="userSpaceOnUse" x1="550.5625" y1="377.1963" x2="581.3623" y2="323.8495" gradientTransform="matrix(-1 0 0 1 828.6445 0)">
					<stop  offset="0.0027" style="stop-color:#007DAC;stop-opacity:0.7"/>
					<stop  offset="0.0964" style="stop-color:#0081AF;stop-opacity:0.7094"/>
					<stop  offset="0.2745" style="stop-color:#008DB7;stop-opacity:0.7273"/>
					<stop  offset="0.5182" style="stop-color:#5FA4C5;stop-opacity:0.7517"/>
					<stop  offset="0.8149" style="stop-color:#B1CCDD;stop-opacity:0.7814"/>
					<stop  offset="1" style="stop-color:#EAEFF2;stop-opacity:0.8"/>
				</linearGradient>
				<path id="XMLID_123_" fill="url(#XMLID_10_)" d="M289.983,370.325c-2.522,1.374-20.625,10.214-38.586-6.774
					c0,0-9.07-8.274-13.9-21.165c-4.841-12.603-2.646-14.422,5.295-10.238c7.915,4.167,31.954,16.431,47.191,28.719V370.325z"/>
				
					<linearGradient id="XMLID_11_" gradientUnits="userSpaceOnUse" x1="548.1709" y1="374.8008" x2="579.8187" y2="319.9851" gradientTransform="matrix(-1 0 0 1 828.6445 0)">
					<stop  offset="0" style="stop-color:#38C6F4"/>
					<stop  offset="0.1405" style="stop-color:#54C9F3;stop-opacity:0.9719"/>
					<stop  offset="0.407" style="stop-color:#85D1F2;stop-opacity:0.9186"/>
					<stop  offset="0.7686" style="stop-color:#C3E2F2;stop-opacity:0.8463"/>
					<stop  offset="1" style="stop-color:#EAEFF2;stop-opacity:0.8"/>
				</linearGradient>
				<path id="XMLID_122_" opacity="0.7" fill="url(#XMLID_11_)" d="M289.983,359.989v9.321c0,0-19.101,8.832-36.674-11.758
					c0,0-7.745-8.905-11.247-21.686c-3.5-12.777-1.102-14.195,6.086-9.341C255.334,331.383,276.671,346.541,289.983,359.989z"/>
			</g>
		</g>
		<g id="XMLID_109_">
			<g id="XMLID_110_" opacity="0.95">
				
					<linearGradient id="XMLID_12_" gradientUnits="userSpaceOnUse" x1="505.2578" y1="390.4614" x2="531.5635" y2="390.4614" gradientTransform="matrix(1 0 0 1 -215.2744 0)">
					<stop  offset="0" style="stop-color:#B5E4FA"/>
					<stop  offset="0.4916" style="stop-color:#9EDDF9"/>
					<stop  offset="0.9786" style="stop-color:#9EDDF9;stop-opacity:0.3721"/>
					<stop  offset="1" style="stop-color:#9EDDF9;stop-opacity:0.3446"/>
				</linearGradient>
				<path id="XMLID_119_" opacity="0.7" fill="url(#XMLID_12_)" d="M289.983,372.604c0,0,4.577,18.007,12.067,34.135
					c0.363,0.655,5.041,12.708,11.587,1.027c3.866-10.34,3.116-20.384,0.234-26.928c0,0-5.503-15.118-23.889-11.528v-1.229V372.604z
					"/>
				
					<linearGradient id="XMLID_13_" gradientUnits="userSpaceOnUse" x1="512.0391" y1="362.1621" x2="537.1753" y2="405.6993" gradientTransform="matrix(1 0 0 1 -215.2744 0)">
					<stop  offset="0.1233" style="stop-color:#007DAC;stop-opacity:0.3"/>
					<stop  offset="0.1564" style="stop-color:#0084B3;stop-opacity:0.3152"/>
					<stop  offset="0.2743" style="stop-color:#009CCA;stop-opacity:0.3695"/>
					<stop  offset="0.3841" style="stop-color:#00AFDD;stop-opacity:0.42"/>
					<stop  offset="0.482" style="stop-color:#2FBEEC;stop-opacity:0.4651"/>
					<stop  offset="0.5579" style="stop-color:#38C6F4;stop-opacity:0.5"/>
					<stop  offset="0.6511" style="stop-color:#3FC7F4;stop-opacity:0.5422"/>
					<stop  offset="0.7238" style="stop-color:#52C9F5;stop-opacity:0.5751"/>
					<stop  offset="0.7896" style="stop-color:#6BCEF5;stop-opacity:0.6048"/>
					<stop  offset="0.8513" style="stop-color:#89D5F6;stop-opacity:0.6327"/>
					<stop  offset="0.9101" style="stop-color:#ABDFF8;stop-opacity:0.6594"/>
					<stop  offset="0.9661" style="stop-color:#D1ECF9;stop-opacity:0.6846"/>
					<stop  offset="1" style="stop-color:#EBF5FA;stop-opacity:0.7"/>
				</linearGradient>
				<path id="XMLID_118_" opacity="0.63" fill="url(#XMLID_13_)" d="M289.983,372.358c0,0,10.52,17.64,20.788,31.888
					c0.493,0.566,6.938,10.603,10.431-2.34c1.215-5.764,2.116-15.93-2.89-24.361c0,0-8.119-14.576-28.329-11.467v1.152V372.358z"/>
				
					<linearGradient id="XMLID_14_" gradientUnits="userSpaceOnUse" x1="512.3086" y1="359.0024" x2="538.8306" y2="404.9398" gradientTransform="matrix(1 0 0 1 -215.2744 0)">
					<stop  offset="0" style="stop-color:#007DAC;stop-opacity:0"/>
					<stop  offset="0.539" style="stop-color:#007DAC;stop-opacity:0.7"/>
					<stop  offset="0.5862" style="stop-color:#0082AF;stop-opacity:0.7102"/>
					<stop  offset="0.6783" style="stop-color:#0091BA;stop-opacity:0.7302"/>
					<stop  offset="0.8064" style="stop-color:#6EADCD;stop-opacity:0.758"/>
					<stop  offset="0.9642" style="stop-color:#CDE0EC;stop-opacity:0.7922"/>
					<stop  offset="1" style="stop-color:#E6F1F7;stop-opacity:0.8"/>
				</linearGradient>
				<path id="XMLID_117_" opacity="0.7" fill="url(#XMLID_14_)" d="M289.983,372.358c0,0,14.862,17.049,26.732,29.442
					c0.571,0.481,8.483,9.402,9.943-3.929c0.562-10.975-1.374-17.526-7.563-25.077c0,0-10.074-12.664-29.112-9.721v5.457V372.358z"
					/>
				
					<linearGradient id="XMLID_15_" gradientUnits="userSpaceOnUse" x1="512.6953" y1="355.6831" x2="537.4272" y2="398.5201" gradientTransform="matrix(1 0 0 1 -215.2744 0)">
					<stop  offset="0.3496" style="stop-color:#006B96;stop-opacity:0"/>
					<stop  offset="0.3714" style="stop-color:#006F99;stop-opacity:0.0758"/>
					<stop  offset="0.437" style="stop-color:#0076A2;stop-opacity:0.3035"/>
					<stop  offset="0.5032" style="stop-color:#007AA8;stop-opacity:0.5334"/>
					<stop  offset="0.5698" style="stop-color:#007CAB;stop-opacity:0.7648"/>
					<stop  offset="0.6375" style="stop-color:#007DAC"/>
					<stop  offset="0.6792" style="stop-color:#007EAD"/>
					<stop  offset="0.7254" style="stop-color:#0082B0"/>
					<stop  offset="0.7738" style="stop-color:#008AB5"/>
					<stop  offset="0.8238" style="stop-color:#2795BC"/>
					<stop  offset="0.8749" style="stop-color:#5EA5C7"/>
					<stop  offset="0.9271" style="stop-color:#90BCD5"/>
					<stop  offset="0.979" style="stop-color:#C9DCE8"/>
					<stop  offset="1" style="stop-color:#E4EEF3"/>
				</linearGradient>
				<path id="XMLID_116_" opacity="0.42" fill="url(#XMLID_15_)" d="M289.983,371.097c2.923,2.086,24.222,17.146,31.209,21.875
					c7.515,5.089,9.072-0.117,9.072-0.117c1.156-6.932-5.255-17.68-5.255-17.68c-6.793-11.128-18.943-13.816-18.943-13.816
					c-9.373-2.781-16.083-1.382-16.083-1.382v3.929V371.097z"/>
				
					<linearGradient id="XMLID_16_" gradientUnits="userSpaceOnUse" x1="505.2578" y1="362.7085" x2="565.7969" y2="362.7085" gradientTransform="matrix(1 0 0 1 -215.2744 0)">
					<stop  offset="0" style="stop-color:#38C6F4"/>
					<stop  offset="0.1543" style="stop-color:#42C7F4;stop-opacity:0.9846"/>
					<stop  offset="0.3279" style="stop-color:#5BCBF5;stop-opacity:0.9672"/>
					<stop  offset="0.5109" style="stop-color:#7AD2F7;stop-opacity:0.9489"/>
					<stop  offset="0.7003" style="stop-color:#A0DDF9;stop-opacity:0.93"/>
					<stop  offset="0.8929" style="stop-color:#CCECFC;stop-opacity:0.9107"/>
					<stop  offset="1" style="stop-color:#E7F6FD;stop-opacity:0.9"/>
				</linearGradient>
				<path id="XMLID_115_" opacity="0.7" fill="url(#XMLID_16_)" d="M289.983,360.535v11.823c0,0,13.81,14.265,35.942,3.795
					c0,0,10.826-4.83,18.959-16.136c8.365-11.524,7.107-15.975-1.695-14.224C334.379,347.552,308.092,353.037,289.983,360.535z"/>
				
					<linearGradient id="XMLID_17_" gradientUnits="userSpaceOnUse" x1="512.8125" y1="378.2676" x2="558.0425" y2="333.0375" gradientTransform="matrix(1 0 0 1 -215.2744 0)">
					<stop  offset="0" style="stop-color:#007DAC"/>
					<stop  offset="0.0948" style="stop-color:#0081AF;stop-opacity:0.9716"/>
					<stop  offset="0.2749" style="stop-color:#008EB8;stop-opacity:0.9175"/>
					<stop  offset="0.5213" style="stop-color:#61A7C9;stop-opacity:0.8436"/>
					<stop  offset="0.8214" style="stop-color:#B6D2E3;stop-opacity:0.7536"/>
					<stop  offset="1" style="stop-color:#F0F7FB;stop-opacity:0.7"/>
				</linearGradient>
				<path id="XMLID_114_" opacity="0.9" fill="url(#XMLID_17_)" d="M289.983,362.022v8.691c0,0,17.557,14.495,38.565-0.566
					c0,0,10.022-6.726,16.429-19.091c6.603-12.615,4.766-14.854-3.696-11.852C332.821,342.224,306.053,351.965,289.983,362.022z"/>
				
					<linearGradient id="XMLID_18_" gradientUnits="userSpaceOnUse" x1="512.5332" y1="372.876" x2="545.8182" y2="315.2246" gradientTransform="matrix(1 0 0 1 -215.2744 0)">
					<stop  offset="0.0044" style="stop-color:#38C6F4"/>
					<stop  offset="0.1845" style="stop-color:#40C7F4;stop-opacity:0.9871"/>
					<stop  offset="0.3505" style="stop-color:#55CAF5;stop-opacity:0.9751"/>
					<stop  offset="0.5109" style="stop-color:#71D0F6;stop-opacity:0.9636"/>
					<stop  offset="0.6668" style="stop-color:#91D9F8;stop-opacity:0.9524"/>
					<stop  offset="0.8163" style="stop-color:#B6E4FA;stop-opacity:0.9417"/>
					<stop  offset="0.8957" style="stop-color:#D2EEFC;stop-opacity:0.9417"/>
					<stop  offset="1" style="stop-color:#FFFFFF;stop-opacity:0.9417"/>
				</linearGradient>
				<path id="XMLID_113_" opacity="0.4" fill="url(#XMLID_18_)" d="M289.983,359.977v8.698c0,0,22.031,4.834,35.2-18.674
					c0,0,5.554-10.19,6.5-23.347c0.939-13.161-0.914-14.091-6.991-7.955C318.336,325.474,300.887,344.193,289.983,359.977z"/>
				
					<linearGradient id="XMLID_19_" gradientUnits="userSpaceOnUse" x1="517.1592" y1="377.1958" x2="547.9596" y2="323.8479" gradientTransform="matrix(1 0 0 1 -215.2744 0)">
					<stop  offset="0.0027" style="stop-color:#007DAC;stop-opacity:0.7"/>
					<stop  offset="0.0964" style="stop-color:#0081AF;stop-opacity:0.7094"/>
					<stop  offset="0.2745" style="stop-color:#008DB7;stop-opacity:0.7273"/>
					<stop  offset="0.5182" style="stop-color:#5FA4C5;stop-opacity:0.7517"/>
					<stop  offset="0.8149" style="stop-color:#B1CCDD;stop-opacity:0.7814"/>
					<stop  offset="1" style="stop-color:#EAEFF2;stop-opacity:0.8"/>
				</linearGradient>
				<path id="XMLID_112_" fill="url(#XMLID_19_)" d="M289.983,370.325c2.524,1.374,20.624,10.214,38.587-6.774
					c0,0,9.066-8.274,13.899-21.165c4.843-12.603,2.647-14.422-5.291-10.238c-7.917,4.167-31.957,16.431-47.195,28.719V370.325z"/>
				
					<linearGradient id="XMLID_20_" gradientUnits="userSpaceOnUse" x1="514.7676" y1="374.8008" x2="546.4156" y2="319.9847" gradientTransform="matrix(1 0 0 1 -215.2744 0)">
					<stop  offset="0" style="stop-color:#38C6F4"/>
					<stop  offset="0.1405" style="stop-color:#54C9F3;stop-opacity:0.9719"/>
					<stop  offset="0.407" style="stop-color:#85D1F2;stop-opacity:0.9186"/>
					<stop  offset="0.7686" style="stop-color:#C3E2F2;stop-opacity:0.8463"/>
					<stop  offset="1" style="stop-color:#EAEFF2;stop-opacity:0.8"/>
				</linearGradient>
				<path id="XMLID_111_" opacity="0.7" fill="url(#XMLID_20_)" d="M289.983,359.989v9.321c0,0,19.103,8.832,36.674-11.758
					c0,0,7.745-8.905,11.247-21.686c3.5-12.777,1.104-14.195-6.082-9.341C324.632,331.383,303.298,346.541,289.983,359.989z"/>
			</g>
		</g>
	</g>
</g>
<g>
	<path fill="#6D6E71" d="M107.988,520.099v-2.368c2.089,0.743,4.346,1.115,6.77,1.115c3.427,0,5.141-1.254,5.141-3.762
		c0-2.137-1.263-3.204-3.789-3.204h-2.563c-4.17,0-6.255-1.812-6.255-5.433c0-3.809,2.67-5.713,8.01-5.713
		c2.322,0,4.481,0.279,6.478,0.836v2.369c-1.997-0.743-4.156-1.115-6.478-1.115c-3.622,0-5.433,1.208-5.433,3.623
		c0,2.136,1.226,3.203,3.678,3.203h2.563c4.244,0,6.366,1.812,6.366,5.434c0,3.9-2.573,5.851-7.718,5.851
		C112.334,520.935,110.078,520.656,107.988,520.099z"/>
	<path fill="#6D6E71" d="M142.116,500.875v2.089h-10.448v6.687h9.961v2.09h-9.961v6.965h10.657v2.09H129.09v-19.92H142.116z"/>
	<path fill="#6D6E71" d="M149.079,520.795v-19.92h7.244c6.594,0,9.891,3.139,9.891,9.416c0,7.004-3.297,10.504-9.891,10.504H149.079
		z M156.323,518.705c4.876,0,7.313-2.805,7.313-8.414c0-4.885-2.438-7.327-7.313-7.327h-4.667v15.741H156.323z"/>
	<path fill="#6D6E71" d="M173.483,520.795h-2.675l8.456-19.92h2.856l8.498,19.92h-2.856l-2.577-6.269h-6.589l0.71-2.089h5.015
		l-3.72-9.027L173.483,520.795z"/>
	<path fill="#6D6E71" d="M207.541,500.875v2.089h-6.269v17.831h-2.577v-17.831h-6.269v-2.089H207.541z"/>
	<path fill="#6D6E71" d="M216.454,500.875v19.92h-2.577v-19.92H216.454z"/>
	<path fill="#6D6E71" d="M223.765,510.863c0-6.752,3.334-10.129,10.002-10.129c6.566,0,9.85,3.377,9.85,10.129
		c0,6.714-3.283,10.071-9.85,10.071C227.099,520.935,223.765,517.577,223.765,510.863z M233.767,518.846
		c4.755,0,7.133-2.689,7.133-8.066c0-5.303-2.377-7.955-7.133-7.955c-4.857,0-7.286,2.652-7.286,7.955
		C226.481,516.156,228.91,518.846,233.767,518.846z"/>
	<path fill="#6D6E71" d="M250.509,520.795v-19.92h2.577l12.189,16.048v-16.048h2.438v19.92h-2.577l-12.189-16.188v16.188H250.509z"
		/>
	<path fill="#6D6E71" d="M288.117,500.875v19.92h-2.577v-19.92H288.117z"/>
	<path fill="#6D6E71" d="M296.125,520.795v-19.92h2.577l12.189,16.048v-16.048h2.438v19.92h-2.577l-12.189-16.188v16.188H296.125z"
		/>
	<path fill="#6D6E71" d="M345.783,520.099c-1.719,0.558-3.576,0.836-5.572,0.836c-6.966,0-10.449-3.46-10.449-10.378
		c0-6.548,3.483-9.822,10.449-9.822c1.996,0,3.854,0.279,5.572,0.836v2.229c-1.719-0.649-3.483-0.976-5.295-0.976
		c-5.432,0-8.148,2.578-8.148,7.732c0,5.525,2.717,8.289,8.148,8.289c1.812,0,3.576-0.326,5.295-0.976V520.099z"/>
	<path fill="#6D6E71" d="M352.188,510.863c0-6.752,3.334-10.129,10.002-10.129c6.566,0,9.85,3.377,9.85,10.129
		c0,6.714-3.283,10.071-9.85,10.071C355.521,520.935,352.188,517.577,352.188,510.863z M362.189,518.846
		c4.756,0,7.133-2.689,7.133-8.066c0-5.303-2.377-7.955-7.133-7.955c-4.856,0-7.285,2.652-7.285,7.955
		C354.904,516.156,357.333,518.846,362.189,518.846z"/>
	<path fill="#6D6E71" d="M378.933,520.795v-19.92h2.577l12.189,16.048v-16.048h2.438v19.92h-2.577l-12.19-16.188v16.188H378.933z"/>
	<path fill="#6D6E71" d="M417.17,500.875v2.089h-6.269v17.831h-2.577v-17.831h-6.27v-2.089H417.17z"/>
	<path fill="#6D6E71" d="M423.088,520.795v-19.92h8.498c3.789,0,5.684,1.592,5.684,4.777c0,2.592-1.853,4.51-5.559,5.754l6.84,9.389
		h-3.398l-6.339-8.957v-1.686c3.808-0.604,5.712-2.066,5.712-4.389c0-1.838-1.059-2.758-3.177-2.758h-5.684v17.789H423.088z"/>
	<path fill="#6D6E71" d="M443.424,510.863c0-6.752,3.334-10.129,10.002-10.129c6.566,0,9.85,3.377,9.85,10.129
		c0,6.714-3.283,10.071-9.85,10.071C446.758,520.935,443.424,517.577,443.424,510.863z M453.426,518.846
		c4.755,0,7.133-2.689,7.133-8.066c0-5.303-2.378-7.955-7.133-7.955c-4.857,0-7.285,2.652-7.285,7.955
		C446.141,516.156,448.568,518.846,453.426,518.846z"/>
	<path fill="#6D6E71" d="M472.745,500.875v17.83h10.421v2.09h-12.998v-19.92H472.745z"/>
</g>
</svg>
