<?xml version="1.0" encoding="utf-8"?>
<!-- Generator: Adobe Illustrator 17.1.0, SVG Export Plug-In . SVG Version: 6.00 Build 0)  -->
<!DOCTYPE svg PUBLIC "-//W3C//DTD SVG 1.1//EN" "http://www.w3.org/Graphics/SVG/1.1/DTD/svg11.dtd">
<svg version="1.1" id="Layer_1" xmlns="http://www.w3.org/2000/svg" xmlns:xlink="http://www.w3.org/1999/xlink" x="0px" y="0px"
	 viewBox="0 0 566.9 566.9" enable-background="new 0 0 566.9 566.9" xml:space="preserve">
<radialGradient id="XMLID_2_" cx="281.8909" cy="297.8439" r="91.8292" gradientUnits="userSpaceOnUse">
	<stop  offset="0" style="stop-color:#00B3F0"/>
	<stop  offset="1" style="stop-color:#002E6E"/>
</radialGradient>
<rect id="XMLID_144_" x="157.9" y="259.1" fill="url(#XMLID_2_)" width="247.9" height="77.5"/>
<g id="XMLID_131_">
	<path id="XMLID_143_" fill="#FFFFFF" d="M282.8,282.6c-8.2,0-12.3,7.6-12.3,16c0,8.2,4.5,15.6,12.3,15.6c7.9,0,12.3-7.3,12.3-16
		C295.1,290.6,291.1,282.6,282.8,282.6z"/>
	<path id="XMLID_142_" fill="#FFFFFF" d="M317.6,282.8c-2.6,0-4.5,0.2-5.8,0.5v30.4c1.3,0.2,3.1,0.3,5,0.3
		c10.6,0,16.4-5.9,16.4-16.3C333.2,288.6,328.1,282.8,317.6,282.8z"/>
	<path id="XMLID_141_" fill="#FFFFFF" d="M240.2,282.8c-2.6,0-4.5,0.2-5.8,0.5v30.4c1.3,0.2,3.1,0.3,5,0.3
		c10.6,0,16.4-5.9,16.4-16.3C255.9,288.6,250.7,282.8,240.2,282.8z"/>
	<path id="XMLID_132_" fill="#FFFFFF" d="M139.3,257.6V341H429v-83.4H139.3z M181.1,318.2c-3.7,0-7.8-1.1-9.8-2.5l1.3-4.2
		c2.2,1.4,5.5,2.5,8.9,2.5c5.1,0,8.1-2.7,8.1-6.6c0-3.6-2.1-5.7-7.3-7.7c-6.3-2.2-10.2-5.5-10.2-10.9c0-6,5-10.4,12.4-10.4
		c3.9,0,6.8,0.9,8.5,1.9l-1.4,4.1c-1.3-0.7-3.8-1.8-7.3-1.8c-5.3,0-7.3,3.1-7.3,5.8c0,3.6,2.3,5.4,7.7,7.4c6.5,2.5,9.8,5.7,9.8,11.3
		C194.5,313.1,190.1,318.2,181.1,318.2z M223,317.6h-21.6v-38.5h20.8v4.2h-15.8v12.2h15v4.1h-15v13.9H223V317.6z M255.5,312.4
		c-3.6,3.6-9.5,5.5-17,5.5c-3.5,0-6.5-0.2-9-0.5v-37.9c3-0.5,6.6-0.8,10.6-0.8c7.1,0,12.2,1.7,15.6,4.8c3.4,3.1,5.4,7.6,5.4,13.8
		C261,303.7,259.1,308.9,255.5,312.4z M282.5,318.2c-10.2,0-17.3-7.9-17.3-19.5c0-12.2,7.6-20.2,17.9-20.2c10.5,0,17.3,8,17.3,19.5
		C300.3,311.2,292.3,318.2,282.5,318.2z M332.8,312.4c-3.6,3.6-9.5,5.5-17,5.5c-3.5,0-6.5-0.2-9-0.5v-37.9c3-0.5,6.6-0.8,10.6-0.8
		c7.1,0,12.2,1.7,15.6,4.8c3.4,3.1,5.4,7.6,5.4,13.8C338.4,303.7,336.4,308.9,332.8,312.4z M366.5,317.6h-21.6v-38.5h20.8v4.2h-15.8
		v12.2h15v4.1h-15v13.9h16.7V317.6z M394,317.6l-4.9-8.5c-2-3.3-3.3-5.4-4.5-7.6h-0.1c-1.1,2.2-2.2,4.3-4.2,7.6l-4.6,8.5H370
		l11.8-19.5l-11.3-19h5.8l5.1,9c1.4,2.5,2.5,4.5,3.5,6.5h0.2c1.1-2.3,2.1-4.1,3.5-6.5l5.3-9h5.7l-11.7,18.7l12,19.8H394z"/>
</g>
<g id="XMLID_120_">
	<g id="XMLID_121_" opacity="0.95">
		
			<linearGradient id="XMLID_3_" gradientUnits="userSpaceOnUse" x1="515.8823" y1="263.0935" x2="531.9348" y2="263.0935" gradientTransform="matrix(-1 0 0 1 798.6445 0)">
			<stop  offset="0" style="stop-color:#B4E3F9"/>
			<stop  offset="0.4916" style="stop-color:#9DDCF8"/>
			<stop  offset="0.9786" style="stop-color:#9DDCF8;stop-opacity:0.3721"/>
			<stop  offset="1" style="stop-color:#9DDCF8;stop-opacity:0.3446"/>
		</linearGradient>
		<path id="XMLID_130_" opacity="0.7" fill="url(#XMLID_3_)" d="M282.8,252.2c0,0-2.8,11-7.4,20.8c-0.2,0.4-3.1,7.8-7.1,0.6
			c-2.4-6.3-1.9-12.4-0.1-16.4c0,0,3.4-9.2,14.6-7v-0.7V252.2z"/>
		
			<linearGradient id="XMLID_4_" gradientUnits="userSpaceOnUse" x1="520.0202" y1="245.8237" x2="535.3597" y2="272.3924" gradientTransform="matrix(-1 0 0 1 798.6445 0)">
			<stop  offset="0.1233" style="stop-color:#007DAC;stop-opacity:0.3"/>
			<stop  offset="0.1564" style="stop-color:#0084B3;stop-opacity:0.3152"/>
			<stop  offset="0.2743" style="stop-color:#009CCA;stop-opacity:0.3695"/>
			<stop  offset="0.3841" style="stop-color:#00AFDD;stop-opacity:0.42"/>
			<stop  offset="0.482" style="stop-color:#2FBEEC;stop-opacity:0.4651"/>
			<stop  offset="0.5579" style="stop-color:#38C6F4;stop-opacity:0.5"/>
			<stop  offset="0.6436" style="stop-color:#3BC7F4;stop-opacity:0.5388"/>
			<stop  offset="0.7105" style="stop-color:#45C9F4;stop-opacity:0.569"/>
			<stop  offset="0.771" style="stop-color:#55CEF5;stop-opacity:0.5964"/>
			<stop  offset="0.8278" style="stop-color:#6DD4F6;stop-opacity:0.6221"/>
			<stop  offset="0.8819" style="stop-color:#8BDCF7;stop-opacity:0.6466"/>
			<stop  offset="0.9341" style="stop-color:#B0E6F8;stop-opacity:0.6702"/>
			<stop  offset="0.9838" style="stop-color:#DBF1F9;stop-opacity:0.6927"/>
			<stop  offset="1" style="stop-color:#EBF5FA;stop-opacity:0.7"/>
		</linearGradient>
		<path id="XMLID_129_" opacity="0.63" fill="url(#XMLID_4_)" d="M282.8,252c0,0-6.4,10.8-12.7,19.5c-0.3,0.3-4.2,6.5-6.4-1.4
			c-0.7-3.5-1.3-9.7,1.8-14.9c0,0,5-8.9,17.3-7v0.7V252z"/>
		
			<linearGradient id="XMLID_5_" gradientUnits="userSpaceOnUse" x1="520.1848" y1="243.8959" x2="536.3697" y2="271.9289" gradientTransform="matrix(-1 0 0 1 798.6445 0)">
			<stop  offset="0" style="stop-color:#007DAC;stop-opacity:0"/>
			<stop  offset="0.539" style="stop-color:#007DAC;stop-opacity:0.7"/>
			<stop  offset="0.9485" style="stop-color:#007DAC;stop-opacity:0.1639"/>
			<stop  offset="0.9973" style="stop-color:#007DAC;stop-opacity:0.1"/>
		</linearGradient>
		<path id="XMLID_128_" opacity="0.59" fill="url(#XMLID_5_)" d="M282.8,252c0,0-9.1,10.4-16.3,18c-0.3,0.3-5.2,5.7-6.1-2.4
			c-0.3-6.7,0.8-10.7,4.6-15.3c0,0,6.1-7.7,17.8-5.9v3.3V252z"/>
		
			<linearGradient id="XMLID_6_" gradientUnits="userSpaceOnUse" x1="520.421" y1="241.8699" x2="535.5135" y2="268.0111" gradientTransform="matrix(-1 0 0 1 798.6445 0)">
			<stop  offset="0.3496" style="stop-color:#006B95;stop-opacity:0"/>
			<stop  offset="0.3988" style="stop-color:#00719C;stop-opacity:0.171"/>
			<stop  offset="0.5171" style="stop-color:#007AA8;stop-opacity:0.5817"/>
			<stop  offset="0.6375" style="stop-color:#007DAC"/>
			<stop  offset="0.6806" style="stop-color:#057FAD"/>
			<stop  offset="0.7283" style="stop-color:#1286B1"/>
			<stop  offset="0.7783" style="stop-color:#2891B8"/>
			<stop  offset="0.83" style="stop-color:#47A0C2"/>
			<stop  offset="0.8828" style="stop-color:#6FB4CE"/>
			<stop  offset="0.9367" style="stop-color:#A0CCDD"/>
			<stop  offset="0.9905" style="stop-color:#D9E8EF"/>
			<stop  offset="1" style="stop-color:#E4EDF2"/>
		</linearGradient>
		<path id="XMLID_127_" opacity="0.42" fill="url(#XMLID_6_)" d="M282.8,251.3c-1.8,1.3-14.8,10.5-19,13.3c-4.6,3.1-5.5-0.1-5.5-0.1
			c-0.7-4.2,3.2-10.8,3.2-10.8c4.1-6.8,11.6-8.4,11.6-8.4c5.7-1.7,9.8-0.8,9.8-0.8v2.4V251.3z"/>
		
			<linearGradient id="XMLID_7_" gradientUnits="userSpaceOnUse" x1="515.8823" y1="246.1573" x2="552.8253" y2="246.1573" gradientTransform="matrix(-1 0 0 1 798.6445 0)">
			<stop  offset="0" style="stop-color:#38C6F4"/>
			<stop  offset="0.1358" style="stop-color:#3DC7F4;stop-opacity:0.9864"/>
			<stop  offset="0.2886" style="stop-color:#4ACBF5;stop-opacity:0.9711"/>
			<stop  offset="0.4497" style="stop-color:#61D1F6;stop-opacity:0.955"/>
			<stop  offset="0.6165" style="stop-color:#80DAF7;stop-opacity:0.9383"/>
			<stop  offset="0.7879" style="stop-color:#A9E4F9;stop-opacity:0.9212"/>
			<stop  offset="0.9605" style="stop-color:#DAF2FB;stop-opacity:0.9039"/>
			<stop  offset="1" style="stop-color:#E6F5FC;stop-opacity:0.9"/>
		</linearGradient>
		<path id="XMLID_126_" opacity="0.7" fill="url(#XMLID_7_)" d="M282.8,244.8v7.2c0,0-8.4,8.7-21.9,2.3c0,0-6.6-2.9-11.6-9.8
			c-5.1-7-4.3-9.7,1-8.7C255.7,236.9,271.7,240.3,282.8,244.8z"/>
		
			<linearGradient id="XMLID_8_" gradientUnits="userSpaceOnUse" x1="520.4924" y1="255.6521" x2="548.0943" y2="228.0503" gradientTransform="matrix(-1 0 0 1 798.6445 0)">
			<stop  offset="0" style="stop-color:#007DAC"/>
			<stop  offset="9.684485e-02" style="stop-color:#0E84B1;stop-opacity:0.9709"/>
			<stop  offset="0.2808" style="stop-color:#3497BD;stop-opacity:0.9158"/>
			<stop  offset="0.5325" style="stop-color:#70B6D0;stop-opacity:0.8402"/>
			<stop  offset="0.8391" style="stop-color:#C3E0EB;stop-opacity:0.7483"/>
			<stop  offset="1" style="stop-color:#F1F7FA;stop-opacity:0.7"/>
		</linearGradient>
		<path id="XMLID_125_" opacity="0.9" fill="url(#XMLID_8_)" d="M282.8,245.7v5.3c0,0-10.7,8.8-23.5-0.3c0,0-6.1-4.1-10-11.7
			c-4-7.7-2.9-9.1,2.3-7.2C256.6,233.7,273,239.6,282.8,245.7z"/>
		
			<linearGradient id="XMLID_9_" gradientUnits="userSpaceOnUse" x1="520.3218" y1="252.3619" x2="540.6342" y2="217.1798" gradientTransform="matrix(-1 0 0 1 798.6445 0)">
			<stop  offset="4.424430e-03" style="stop-color:#38C6F4"/>
			<stop  offset="0.1601" style="stop-color:#3CC7F4;stop-opacity:0.9888"/>
			<stop  offset="0.3035" style="stop-color:#47CAF5;stop-opacity:0.9785"/>
			<stop  offset="0.4422" style="stop-color:#5ACEF5;stop-opacity:0.9685"/>
			<stop  offset="0.5779" style="stop-color:#74D4F6;stop-opacity:0.9588"/>
			<stop  offset="0.7101" style="stop-color:#95DCF8;stop-opacity:0.9493"/>
			<stop  offset="0.8163" style="stop-color:#B6E4F9;stop-opacity:0.9417"/>
			<stop  offset="0.8891" style="stop-color:#D0EEFB;stop-opacity:0.9417"/>
			<stop  offset="1" style="stop-color:#FFFFFF;stop-opacity:0.9417"/>
		</linearGradient>
		<path id="XMLID_124_" opacity="0.4" fill="url(#XMLID_9_)" d="M282.8,244.5v5.3c0,0-13.4,3-21.5-11.4c0,0-3.4-6.2-4-14.2
			c-0.6-8,0.6-8.6,4.3-4.9C265.5,223.4,276.1,234.9,282.8,244.5z"/>
		
			<linearGradient id="XMLID_10_" gradientUnits="userSpaceOnUse" x1="523.1453" y1="254.9984" x2="541.9412" y2="222.443" gradientTransform="matrix(-1 0 0 1 798.6445 0)">
			<stop  offset="2.670600e-03" style="stop-color:#007DAC;stop-opacity:0.7"/>
			<stop  offset="0.102" style="stop-color:#0E84B0;stop-opacity:0.71"/>
			<stop  offset="0.2905" style="stop-color:#3496BB;stop-opacity:0.7289"/>
			<stop  offset="0.5486" style="stop-color:#70B3CD;stop-opacity:0.7547"/>
			<stop  offset="0.863" style="stop-color:#C3DBE6;stop-opacity:0.7863"/>
			<stop  offset="1" style="stop-color:#E9EEF1;stop-opacity:0.8"/>
		</linearGradient>
		<path id="XMLID_123_" fill="url(#XMLID_10_)" d="M282.8,250.8c-1.5,0.8-12.6,6.2-23.5-4.1c0,0-5.5-5-8.5-12.9
			c-3-7.7-1.6-8.8,3.2-6.2c4.8,2.5,19.5,10,28.8,17.5V250.8z"/>
		
			<linearGradient id="XMLID_11_" gradientUnits="userSpaceOnUse" x1="521.6856" y1="253.5365" x2="540.9989" y2="220.0849" gradientTransform="matrix(-1 0 0 1 798.6445 0)">
			<stop  offset="0" style="stop-color:#38C6F4"/>
			<stop  offset="0.1248" style="stop-color:#46C9F4;stop-opacity:0.975"/>
			<stop  offset="0.3617" style="stop-color:#6CD2F3;stop-opacity:0.9277"/>
			<stop  offset="0.6827" style="stop-color:#A7DFF2;stop-opacity:0.8635"/>
			<stop  offset="1" style="stop-color:#E9EEF1;stop-opacity:0.8"/>
		</linearGradient>
		<path id="XMLID_122_" opacity="0.7" fill="url(#XMLID_11_)" d="M282.8,244.5v5.7c0,0-11.7,5.4-22.4-7.2c0,0-4.7-5.4-6.9-13.2
			c-2.1-7.8-0.7-8.7,3.7-5.7C261.6,227,274.6,236.3,282.8,244.5z"/>
	</g>
</g>
<g id="XMLID_109_">
	<g id="XMLID_110_" opacity="0.95">
		
			<linearGradient id="XMLID_12_" gradientUnits="userSpaceOnUse" x1="498.0364" y1="263.0935" x2="514.0897" y2="263.0935" gradientTransform="matrix(1 0 0 1 -215.2742 0)">
			<stop  offset="0" style="stop-color:#B4E3F9"/>
			<stop  offset="0.4916" style="stop-color:#9DDCF8"/>
			<stop  offset="0.9786" style="stop-color:#9DDCF8;stop-opacity:0.3721"/>
			<stop  offset="1" style="stop-color:#9DDCF8;stop-opacity:0.3446"/>
		</linearGradient>
		<path id="XMLID_119_" opacity="0.7" fill="url(#XMLID_12_)" d="M282.8,252.2c0,0,2.8,11,7.4,20.8c0.2,0.4,3.1,7.8,7.1,0.6
			c2.4-6.3,1.9-12.4,0.1-16.4c0,0-3.4-9.2-14.6-7v-0.7V252.2z"/>
		
			<linearGradient id="XMLID_13_" gradientUnits="userSpaceOnUse" x1="502.1749" y1="245.8234" x2="517.5148" y2="272.3929" gradientTransform="matrix(1 0 0 1 -215.2742 0)">
			<stop  offset="0.1233" style="stop-color:#007DAC;stop-opacity:0.3"/>
			<stop  offset="0.1564" style="stop-color:#0084B3;stop-opacity:0.3152"/>
			<stop  offset="0.2743" style="stop-color:#009CCA;stop-opacity:0.3695"/>
			<stop  offset="0.3841" style="stop-color:#00AFDD;stop-opacity:0.42"/>
			<stop  offset="0.482" style="stop-color:#2FBEEC;stop-opacity:0.4651"/>
			<stop  offset="0.5579" style="stop-color:#38C6F4;stop-opacity:0.5"/>
			<stop  offset="0.6436" style="stop-color:#3BC7F4;stop-opacity:0.5388"/>
			<stop  offset="0.7105" style="stop-color:#45C9F4;stop-opacity:0.569"/>
			<stop  offset="0.771" style="stop-color:#55CEF5;stop-opacity:0.5964"/>
			<stop  offset="0.8278" style="stop-color:#6DD4F6;stop-opacity:0.6221"/>
			<stop  offset="0.8819" style="stop-color:#8BDCF7;stop-opacity:0.6466"/>
			<stop  offset="0.9341" style="stop-color:#B0E6F8;stop-opacity:0.6702"/>
			<stop  offset="0.9838" style="stop-color:#DBF1F9;stop-opacity:0.6927"/>
			<stop  offset="1" style="stop-color:#EBF5FA;stop-opacity:0.7"/>
		</linearGradient>
		<path id="XMLID_118_" opacity="0.63" fill="url(#XMLID_13_)" d="M282.8,252c0,0,6.4,10.8,12.7,19.5c0.3,0.3,4.2,6.5,6.4-1.4
			c0.7-3.5,1.3-9.7-1.8-14.9c0,0-5-8.9-17.3-7v0.7V252z"/>
		
			<linearGradient id="XMLID_14_" gradientUnits="userSpaceOnUse" x1="502.3394" y1="243.8956" x2="518.5246" y2="271.9292" gradientTransform="matrix(1 0 0 1 -215.2742 0)">
			<stop  offset="0" style="stop-color:#007DAC;stop-opacity:0"/>
			<stop  offset="0.539" style="stop-color:#007DAC;stop-opacity:0.7"/>
			<stop  offset="0.588" style="stop-color:#1085B1;stop-opacity:0.7106"/>
			<stop  offset="0.6837" style="stop-color:#3A9ABF;stop-opacity:0.7314"/>
			<stop  offset="0.8168" style="stop-color:#7EBCD5;stop-opacity:0.7603"/>
			<stop  offset="0.9808" style="stop-color:#DAEAF2;stop-opacity:0.7958"/>
			<stop  offset="1" style="stop-color:#E5F0F6;stop-opacity:0.8"/>
		</linearGradient>
		<path id="XMLID_117_" opacity="0.7" fill="url(#XMLID_14_)" d="M282.8,252c0,0,9.1,10.4,16.3,18c0.3,0.3,5.2,5.7,6.1-2.4
			c0.3-6.7-0.8-10.7-4.6-15.3c0,0-6.1-7.7-17.8-5.9v3.3V252z"/>
		
			<linearGradient id="XMLID_15_" gradientUnits="userSpaceOnUse" x1="502.575" y1="241.8699" x2="517.668" y2="268.0117" gradientTransform="matrix(1 0 0 1 -215.2742 0)">
			<stop  offset="0.3496" style="stop-color:#006B95;stop-opacity:0"/>
			<stop  offset="0.3988" style="stop-color:#00719C;stop-opacity:0.171"/>
			<stop  offset="0.5171" style="stop-color:#007AA8;stop-opacity:0.5817"/>
			<stop  offset="0.6375" style="stop-color:#007DAC"/>
			<stop  offset="0.6806" style="stop-color:#057FAD"/>
			<stop  offset="0.7283" style="stop-color:#1286B1"/>
			<stop  offset="0.7783" style="stop-color:#2891B8"/>
			<stop  offset="0.83" style="stop-color:#47A0C2"/>
			<stop  offset="0.8828" style="stop-color:#6FB4CE"/>
			<stop  offset="0.9367" style="stop-color:#A0CCDD"/>
			<stop  offset="0.9905" style="stop-color:#D9E8EF"/>
			<stop  offset="1" style="stop-color:#E4EDF2"/>
		</linearGradient>
		<path id="XMLID_116_" opacity="0.42" fill="url(#XMLID_15_)" d="M282.8,251.3c1.8,1.3,14.8,10.5,19,13.3c4.6,3.1,5.5-0.1,5.5-0.1
			c0.7-4.2-3.2-10.8-3.2-10.8c-4.1-6.8-11.6-8.4-11.6-8.4c-5.7-1.7-9.8-0.8-9.8-0.8v2.4V251.3z"/>
		
			<linearGradient id="XMLID_16_" gradientUnits="userSpaceOnUse" x1="498.0364" y1="246.1573" x2="534.981" y2="246.1573" gradientTransform="matrix(1 0 0 1 -215.2742 0)">
			<stop  offset="0" style="stop-color:#38C6F4"/>
			<stop  offset="0.1358" style="stop-color:#3DC7F4;stop-opacity:0.9864"/>
			<stop  offset="0.2886" style="stop-color:#4ACBF5;stop-opacity:0.9711"/>
			<stop  offset="0.4497" style="stop-color:#61D1F6;stop-opacity:0.955"/>
			<stop  offset="0.6165" style="stop-color:#80DAF7;stop-opacity:0.9383"/>
			<stop  offset="0.7879" style="stop-color:#A9E4F9;stop-opacity:0.9212"/>
			<stop  offset="0.9605" style="stop-color:#DAF2FB;stop-opacity:0.9039"/>
			<stop  offset="1" style="stop-color:#E6F5FC;stop-opacity:0.9"/>
		</linearGradient>
		<path id="XMLID_115_" opacity="0.7" fill="url(#XMLID_16_)" d="M282.8,244.8v7.2c0,0,8.4,8.7,21.9,2.3c0,0,6.6-2.9,11.6-9.8
			c5.1-7,4.3-9.7-1-8.7C309.9,236.9,293.8,240.3,282.8,244.8z"/>
		
			<linearGradient id="XMLID_17_" gradientUnits="userSpaceOnUse" x1="502.6467" y1="255.6523" x2="530.249" y2="228.05" gradientTransform="matrix(1 0 0 1 -215.2742 0)">
			<stop  offset="0" style="stop-color:#007DAC"/>
			<stop  offset="9.684485e-02" style="stop-color:#0E84B1;stop-opacity:0.9709"/>
			<stop  offset="0.2808" style="stop-color:#3497BD;stop-opacity:0.9158"/>
			<stop  offset="0.5325" style="stop-color:#70B6D0;stop-opacity:0.8402"/>
			<stop  offset="0.8391" style="stop-color:#C3E0EB;stop-opacity:0.7483"/>
			<stop  offset="1" style="stop-color:#F1F7FA;stop-opacity:0.7"/>
		</linearGradient>
		<path id="XMLID_114_" opacity="0.9" fill="url(#XMLID_17_)" d="M282.8,245.7v5.3c0,0,10.7,8.8,23.5-0.3c0,0,6.1-4.1,10-11.7
			c4-7.7,2.9-9.1-2.3-7.2C308.9,233.7,292.6,239.6,282.8,245.7z"/>
		
			<linearGradient id="XMLID_18_" gradientUnits="userSpaceOnUse" x1="502.4763" y1="252.3621" x2="522.789" y2="217.1796" gradientTransform="matrix(1 0 0 1 -215.2742 0)">
			<stop  offset="4.424430e-03" style="stop-color:#38C6F4"/>
			<stop  offset="0.1601" style="stop-color:#3CC7F4;stop-opacity:0.9888"/>
			<stop  offset="0.3035" style="stop-color:#47CAF5;stop-opacity:0.9785"/>
			<stop  offset="0.4422" style="stop-color:#5ACEF5;stop-opacity:0.9685"/>
			<stop  offset="0.5779" style="stop-color:#74D4F6;stop-opacity:0.9588"/>
			<stop  offset="0.7101" style="stop-color:#95DCF8;stop-opacity:0.9493"/>
			<stop  offset="0.8163" style="stop-color:#B6E4F9;stop-opacity:0.9417"/>
			<stop  offset="0.8891" style="stop-color:#D0EEFB;stop-opacity:0.9417"/>
			<stop  offset="1" style="stop-color:#FFFFFF;stop-opacity:0.9417"/>
		</linearGradient>
		<path id="XMLID_113_" opacity="0.4" fill="url(#XMLID_18_)" d="M282.8,244.5v5.3c0,0,13.4,3,21.5-11.4c0,0,3.4-6.2,4-14.2
			c0.6-8-0.6-8.6-4.3-4.9C300.1,223.4,289.4,234.9,282.8,244.5z"/>
		
			<linearGradient id="XMLID_19_" gradientUnits="userSpaceOnUse" x1="505.2994" y1="254.9984" x2="524.0956" y2="222.4423" gradientTransform="matrix(1 0 0 1 -215.2742 0)">
			<stop  offset="2.670600e-03" style="stop-color:#007DAC;stop-opacity:0.7"/>
			<stop  offset="0.102" style="stop-color:#0E84B0;stop-opacity:0.71"/>
			<stop  offset="0.2905" style="stop-color:#3496BB;stop-opacity:0.7289"/>
			<stop  offset="0.5486" style="stop-color:#70B3CD;stop-opacity:0.7547"/>
			<stop  offset="0.863" style="stop-color:#C3DBE6;stop-opacity:0.7863"/>
			<stop  offset="1" style="stop-color:#E9EEF1;stop-opacity:0.8"/>
		</linearGradient>
		<path id="XMLID_112_" fill="url(#XMLID_19_)" d="M282.8,250.8c1.5,0.8,12.6,6.2,23.5-4.1c0,0,5.5-5,8.5-12.9
			c3-7.7,1.6-8.8-3.2-6.2c-4.8,2.5-19.5,10-28.8,17.5V250.8z"/>
		
			<linearGradient id="XMLID_20_" gradientUnits="userSpaceOnUse" x1="503.8398" y1="253.5365" x2="523.1534" y2="220.0844" gradientTransform="matrix(1 0 0 1 -215.2742 0)">
			<stop  offset="0" style="stop-color:#38C6F4"/>
			<stop  offset="0.1248" style="stop-color:#46C9F4;stop-opacity:0.975"/>
			<stop  offset="0.3617" style="stop-color:#6CD2F3;stop-opacity:0.9277"/>
			<stop  offset="0.6827" style="stop-color:#A7DFF2;stop-opacity:0.8635"/>
			<stop  offset="1" style="stop-color:#E9EEF1;stop-opacity:0.8"/>
		</linearGradient>
		<path id="XMLID_111_" opacity="0.7" fill="url(#XMLID_20_)" d="M282.8,244.5v5.7c0,0,11.7,5.4,22.4-7.2c0,0,4.7-5.4,6.9-13.2
			c2.1-7.8,0.7-8.7-3.7-5.7C303.9,227,290.9,236.3,282.8,244.5z"/>
	</g>
</g>
<g>
	<path fill="#002E6E" d="M172.3,344c0.8,0.5,1.9,0.9,3.1,0.9c1.8,0,2.8-0.9,2.8-2.3c0-1.3-0.7-2-2.5-2.7c-2.2-0.8-3.6-1.9-3.6-3.8
		c0-2.1,1.7-3.7,4.4-3.7c1.4,0,2.4,0.3,3,0.7l-0.5,1.4c-0.4-0.2-1.3-0.6-2.6-0.6c-1.8,0-2.5,1.1-2.5,2c0,1.3,0.8,1.9,2.7,2.6
		c2.3,0.9,3.4,2,3.4,4c0,2.1-1.5,3.9-4.7,3.9c-1.3,0-2.7-0.4-3.4-0.9L172.3,344z"/>
	<path fill="#002E6E" d="M191.4,339.8h-5.2v4.9h5.8v1.5h-7.6v-13.5h7.3v1.5h-5.5v4.3h5.2V339.8z"/>
	<path fill="#002E6E" d="M196.2,332.8c1.1-0.2,2.3-0.3,3.7-0.3c2.5,0,4.3,0.6,5.5,1.7c1.2,1.1,1.9,2.7,1.9,4.8c0,2.2-0.7,4-1.9,5.2
		c-1.3,1.3-3.3,1.9-6,1.9c-1.2,0-2.3-0.1-3.2-0.2V332.8z M198,344.7c0.4,0.1,1.1,0.1,1.8,0.1c3.7,0,5.7-2.1,5.7-5.7
		c0-3.2-1.8-5.2-5.5-5.2c-0.9,0-1.6,0.1-2,0.2V344.7z"/>
	<path fill="#002E6E" d="M213.4,341.8l-1.4,4.2h-1.8l4.6-13.5h2.1l4.6,13.5h-1.9l-1.4-4.2H213.4z M217.9,340.5l-1.3-3.9
		c-0.3-0.9-0.5-1.7-0.7-2.5h0c-0.2,0.8-0.4,1.6-0.7,2.4l-1.3,3.9H217.9z"/>
	<path fill="#002E6E" d="M226.5,334.1h-4.1v-1.5h10v1.5h-4.1v12h-1.8V334.1z"/>
	<path fill="#002E6E" d="M237.6,332.6v13.5h-1.7v-13.5H237.6z"/>
	<path fill="#002E6E" d="M254.2,339.2c0,4.6-2.8,7.1-6.3,7.1c-3.6,0-6.1-2.8-6.1-6.8c0-4.3,2.7-7.1,6.3-7.1
		C251.8,332.4,254.2,335.2,254.2,339.2z M243.7,339.4c0,2.9,1.6,5.5,4.3,5.5c2.8,0,4.3-2.5,4.3-5.6c0-2.7-1.4-5.5-4.3-5.5
		C245.2,333.8,243.7,336.5,243.7,339.4z"/>
	<path fill="#002E6E" d="M258.4,346.1v-13.5h1.9l4.3,6.8c1,1.6,1.8,3,2.4,4.4l0,0c-0.2-1.8-0.2-3.4-0.2-5.5v-5.6h1.6v13.5h-1.8
		l-4.3-6.8c-0.9-1.5-1.8-3-2.5-4.5l-0.1,0c0.1,1.7,0.1,3.3,0.1,5.6v5.8H258.4z"/>
	<path fill="#002E6E" d="M281.5,332.6v13.5h-1.7v-13.5H281.5z"/>
	<path fill="#002E6E" d="M286.6,346.1v-13.5h1.9l4.3,6.8c1,1.6,1.8,3,2.4,4.4l0,0c-0.2-1.8-0.2-3.4-0.2-5.5v-5.6h1.6v13.5h-1.8
		l-4.3-6.8c-0.9-1.5-1.8-3-2.5-4.5l-0.1,0c0.1,1.7,0.1,3.3,0.1,5.6v5.8H286.6z"/>
	<path fill="#002E6E" d="M317.4,345.6c-0.6,0.3-1.9,0.6-3.6,0.6c-3.8,0-6.7-2.4-6.7-6.8c0-4.2,2.9-7.1,7-7.1c1.7,0,2.7,0.4,3.2,0.6
		l-0.4,1.4c-0.7-0.3-1.6-0.6-2.7-0.6c-3.2,0-5.3,2-5.3,5.6c0,3.3,1.9,5.4,5.2,5.4c1.1,0,2.1-0.2,2.8-0.6L317.4,345.6z"/>
	<path fill="#002E6E" d="M332.6,339.2c0,4.6-2.8,7.1-6.3,7.1c-3.6,0-6.1-2.8-6.1-6.8c0-4.3,2.7-7.1,6.3-7.1
		C330.3,332.4,332.6,335.2,332.6,339.2z M322.2,339.4c0,2.9,1.6,5.5,4.3,5.5c2.8,0,4.3-2.5,4.3-5.6c0-2.7-1.4-5.5-4.3-5.5
		C323.6,333.8,322.2,336.5,322.2,339.4z"/>
	<path fill="#002E6E" d="M336.9,346.1v-13.5h1.9l4.3,6.8c1,1.6,1.8,3,2.4,4.4l0,0c-0.2-1.8-0.2-3.4-0.2-5.5v-5.6h1.6v13.5h-1.8
		l-4.3-6.8c-0.9-1.5-1.8-3-2.5-4.5l-0.1,0c0.1,1.7,0.1,3.3,0.1,5.6v5.8H336.9z"/>
	<path fill="#002E6E" d="M354.6,334.1h-4.1v-1.5h10v1.5h-4.1v12h-1.8V334.1z"/>
	<path fill="#002E6E" d="M364,332.8c0.9-0.2,2.1-0.3,3.3-0.3c1.9,0,3.1,0.3,3.9,1.1c0.7,0.6,1.1,1.5,1.1,2.6c0,1.8-1.1,3-2.5,3.4
		v0.1c1,0.4,1.7,1.3,2,2.7c0.4,1.9,0.8,3.2,1,3.7H371c-0.2-0.4-0.5-1.5-0.9-3.2c-0.4-1.9-1.1-2.6-2.7-2.6h-1.6v5.8H364V332.8z
		 M365.7,338.9h1.8c1.9,0,3-1,3-2.6c0-1.7-1.3-2.5-3.1-2.5c-0.8,0-1.4,0.1-1.7,0.2V338.9z"/>
	<path fill="#002E6E" d="M388.3,339.2c0,4.6-2.8,7.1-6.3,7.1c-3.6,0-6.1-2.8-6.1-6.8c0-4.3,2.7-7.1,6.3-7.1
		C385.9,332.4,388.3,335.2,388.3,339.2z M377.8,339.4c0,2.9,1.6,5.5,4.3,5.5c2.8,0,4.3-2.5,4.3-5.6c0-2.7-1.4-5.5-4.3-5.5
		C379.3,333.8,377.8,336.5,377.8,339.4z"/>
	<path fill="#002E6E" d="M392.6,332.6h1.7v12h5.8v1.5h-7.5V332.6z"/>
</g>
</svg>
